<svg xmlns="http://www.w3.org/2000/svg" height="40" fill="#7e22ce" viewBox="0 -960 960 960" width="40"><path d="M155.384-75.384v-232.309q0-73.423 51.753-125.173t125.17-51.75h58.462V-810.77q0-23.718 17.372-41.089 17.372-17.372 41.09-17.372h61.538q23.718 0 41.09 17.372 17.372 17.371 17.372 41.089v326.154h58.462q73.423 0 125.173 51.75t51.75 125.173v232.309H155.384Zm33.847-33.847h120.256v-143.076q0-7.193 4.86-12.058 4.861-4.866 12.423-4.866 6.538 0 11.55 4.866 5.013 4.865 5.013 12.058v143.076h119.744v-143.076q0-7.193 4.86-12.058 4.861-4.866 12.167-4.866t12.063 4.866q4.756 4.865 4.756 12.058v143.076H617.18v-143.076q0-7.193 4.86-12.058 4.86-4.866 12.423-4.866 6.537 0 11.55 4.866 5.013 4.865 5.013 12.058v143.076h119.743v-198.462q0-59.444-41.816-101.26t-101.177-41.816H332.307q-58.974 0-101.025 41.816-42.051 41.816-42.051 101.26v198.462Zm346.154-375.385V-810.77q0-10.769-6.923-17.692t-17.693-6.923h-61.538q-10.77 0-17.693 6.923-6.923 6.923-6.923 17.692v326.154h110.77Z"/></svg>