<svg xmlns="http://www.w3.org/2000/svg" height="40" fill="#ff0000" viewBox="0 -960 960 960" width="40"><path d="M298.615-160q-23.91 0-41.186-17.275-17.275-17.276-17.275-41.186v-510.77H200v-33.846h156.102v-27.693h247.796v27.693H760v33.846h-40.154v510.77q0 24.577-16.942 41.519Q685.962-160 661.385-160h-362.77ZM686-729.231H274v510.77q0 10.769 7.179 17.692 7.18 6.923 17.436 6.923h362.77q9.231 0 16.923-7.692Q686-209.23 686-218.461v-510.77ZM394.41-275.795h33.846v-372.154H394.41v372.154Zm137.334 0h33.846v-372.154h-33.846v372.154ZM274-729.231v535.385-535.385Z"/></svg>